PathFileType	4	(X/Y/Z)	\\Move.snu.ac.kr\motion\Animal\091204_091205_Bird\091205_bird\Project 2\Capture day 2\Session 1\pigeon_028.trc
DataRate	CameraRate	NumFrames	NumMarkers	Units	OrigDataRate	OrigDataStartFrame	OrigNumFrames
240.0	240.0	27	14	mm	240.0	214	6061
Frame#	Time	14MarkersBird:Head			14MarkersBird:C_back			14MarkersBird:Spine			14MarkersBird:L-shoulder			14MarkersBird:L-elbow			14MarkersBird:L-wrist			14MarkersBird:L-hand			14MarkersBird:R-shoulder			14MarkersBird:R-elbow			14MarkersBird:R-Wrist			14MarkersBird:R-hand			14MarkersBird:C_Tail			14MarkersBird:L-Tale			14MarkersBird:R-Tale			
		X1	Y1	Z1	X2	Y2	Z2	X3	Y3	Z3	X4	Y4	Z4	X5	Y5	Z5	X6	Y6	Z6	X7	Y7	Z7	X8	Y8	Z8	X9	Y9	Z9	X10	Y10	Z10	X11	Y11	Z11	X12	Y12	Z12	X13	Y13	Z13	X14	Y14	Z14	

4508	18.779	-175.54825	682.50104	655.51477	-228.16319	685.36749	687.24585	-270.33600	673.08521	720.07471	-214.50287	679.49976	653.84265	-241.57568	665.45374	642.47925	-210.89566	647.49945	617.62329	-199.26854	628.83252	603.09735	-186.60657	676.90594	690.70752	-183.40224	666.55811	714.37872	-152.47343	646.34656	695.42383	-129.27164	617.05548	691.09113	-355.70102	599.51233	773.19598	-354.47571	634.62274	668.70227	-250.95372	637.72321	825.21057	
4509	18.783	-166.00035	678.84851	647.48444	-218.04366	682.66858	679.42450	-260.20642	669.93634	712.22314	-204.57478	676.65894	645.69366	-233.51274	662.11853	636.50671	-200.08186	648.22333	612.85199	-184.51137	628.82404	602.85864	-176.65562	673.95258	682.50513	-175.11906	663.55359	707.45874	-145.13260	646.68292	684.91858	-124.31049	616.17505	674.15076	-344.83777	596.78107	766.83051	-345.40521	629.60986	662.89252	-239.79747	633.50696	816.94971	
4510	18.788	-156.12762	675.02814	639.26343	-207.59732	679.63080	671.38324	-250.02275	666.72717	704.24463	-194.50461	673.52985	637.60028	-226.15546	660.33307	630.87787	-191.82950	650.84674	606.49139	-174.03029	631.59662	599.25226	-166.60764	670.80731	674.17981	-167.29665	662.09766	701.36566	-136.90724	649.32513	677.53241	-117.84106	618.36938	662.69147	-333.86029	593.53271	759.76733	-335.97275	624.57440	656.72125	-228.74960	628.93610	808.44849	
4511	18.792	-145.94427	671.05688	630.85907	-196.86823	676.20740	663.17749	-239.71167	663.40503	696.06531	-184.33084	670.05792	629.57611	-218.98599	659.97369	625.58710	-185.57585	654.42963	598.85944	-167.56252	634.92407	592.38055	-156.50447	667.41272	665.81439	-160.08427	661.99896	695.62433	-128.00768	653.22552	672.65881	-110.03250	621.66522	656.56458	-322.75546	589.56787	751.92444	-326.30463	619.92395	650.18982	-218.16750	624.55719	799.90918	
4512	18.796	-135.53093	666.99274	622.32709	-185.93732	672.41528	654.85846	-229.29205	659.95905	687.72974	-174.09038	666.28143	621.58972	-211.34485	660.65741	620.73138	-180.60794	658.42755	590.61340	-164.60600	637.54462	583.45703	-146.43069	663.82452	657.47498	-153.67172	662.93835	689.50336	-118.97527	657.66479	669.41125	-101.69971	624.90100	654.92053	-311.62424	584.94373	743.34833	-316.51453	616.09216	643.18988	-208.18680	620.85010	791.53168	
4513	18.800	-124.98975	662.89404	613.75287	-174.89888	668.33539	646.47504	-218.81819	656.34760	679.30841	-163.79485	662.29980	613.62769	-202.66553	661.77881	616.44208	-176.19443	662.63184	582.58765	-164.63222	639.54468	574.10406	-136.49936	660.21735	649.14343	-148.05006	664.42291	682.20142	-110.46408	662.27887	666.82928	-93.76862	628.00647	656.72266	-300.63019	579.93488	734.20160	-306.64047	613.37164	635.52222	-198.65312	618.04877	783.40649	
4514	18.804	-114.42027	658.81378	605.22888	-163.85086	664.10571	638.08282	-208.35388	652.52502	670.85260	-153.42395	658.23175	605.70190	-192.68036	662.67303	612.76788	-171.62067	666.89679	575.58344	-166.92192	641.91119	565.86188	-126.78415	656.79590	640.71130	-142.92450	665.83521	673.18463	-103.05311	666.90546	663.91364	-86.95932	631.77661	660.84338	-289.95547	574.92462	724.73602	-296.60614	611.73486	626.98474	-189.21422	616.11456	775.48157	
4515	18.808	-103.90304	654.78479	596.80615	-152.88013	659.88727	629.72302	-197.95016	648.46844	662.39490	-142.96501	654.18268	597.81995	-181.47122	662.78217	609.54572	-166.21115	670.94116	570.09625	-170.22151	645.74310	559.90533	-117.28015	653.64221	632.06763	-137.83348	666.58832	662.45007	-96.99614	671.37018	659.70062	-81.82629	637.24060	665.91461	-279.75485	570.26117	715.23914	-286.26694	610.80829	617.52185	-179.51244	614.84027	767.63922	
4516	18.813	-93.48038	650.82251	588.48834	-142.04395	655.78711	621.40442	-187.62642	644.17957	653.97003	-132.45294	650.21155	589.97327	-169.36696	661.77197	606.37024	-159.49490	674.38733	566.06616	-172.74670	651.66107	556.69037	-107.91073	650.63214	623.21222	-132.33604	666.26624	650.49792	-92.03470	675.38275	653.54431	-78.79782	645.01837	670.27026	-270.09970	566.14722	705.95721	-275.56348	610.11621	607.36804	-169.38226	613.97815	759.79376	
4517	18.817	-83.14679	646.94153	580.26154	-131.37059	651.78839	613.12000	-177.36995	639.65479	645.59937	-121.97094	646.29260	582.14020	-156.79633	659.62732	602.71375	-151.44975	676.97980	562.90161	-172.78986	659.56219	555.74921	-98.55323	647.50867	614.28949	-126.09241	664.71954	638.07959	-87.52596	678.62354	645.45551	-77.90270	655.04761	672.13440	-260.95810	562.63739	697.03424	-264.64716	609.38623	597.05878	-158.97420	613.32733	751.91895	
4518	18.821	-72.86131	643.13074	572.09735	-120.88281	647.73822	604.86285	-167.15108	634.85663	637.26697	-111.60770	642.32172	574.29413	-144.13771	656.65613	598.08691	-142.52534	678.72473	559.81335	-169.40361	668.70062	555.99286	-89.07439	644.04047	605.51123	-118.88401	662.11523	625.90576	-82.80360	680.92883	636.10931	-78.49966	666.65448	670.15454	-252.23164	559.69604	688.51129	-253.83481	608.58905	587.24176	-148.70332	612.70276	744.01495	
4519	18.825	-62.58694	639.33374	563.95178	-110.63401	643.42657	596.63177	-157.01627	629.88556	629.02429	-101.41541	638.19489	566.41272	-131.60210	653.33508	592.15906	-133.33882	679.77240	556.09930	-162.54628	677.98633	556.24432	-79.37933	640.13202	597.04584	-110.58764	658.83215	614.42352	-77.39585	682.34930	626.43390	-79.38541	678.70691	663.93787	-243.80983	557.25751	680.38794	-243.38876	607.63068	578.35571	-138.97052	611.77777	736.07611	
4520	18.829	-52.33847	635.48950	555.80200	-100.68613	638.74902	588.44708	-146.82054	624.61267	620.70422	-91.41189	633.88373	558.48407	-119.25565	650.07605	584.82471	-124.32657	680.12518	551.22296	-152.82535	686.23340	555.46588	-69.43550	635.82629	588.96576	-101.14049	655.28302	603.78625	-70.96088	682.95984	617.19073	-79.02397	689.82239	654.23596	-235.58084	555.23956	672.67639	-233.30202	606.06122	570.34479	-129.76677	609.91998	728.10120	
4521	18.833	-42.18700	631.57373	547.66888	-91.05723	633.81592	580.37616	-135.89664	618.04126	611.59985	-81.60767	629.43988	550.51031	-107.23969	647.00549	576.20496	-115.66189	679.48163	544.80359	-141.27301	692.32117	552.65320	-59.28247	631.24713	581.26117	-90.57243	651.76373	594.06409	-63.17456	682.59528	608.88757	-75.83156	698.61139	642.80450	-227.40645	553.47290	665.35767	-223.27821	603.28473	562.64087	-120.52053	606.36688	720.12817	
4522	18.837	-32.20518	627.58765	539.59778	-81.69804	628.85193	572.48901	-124.97005	611.35809	602.63873	-72.01337	624.95581	542.49493	-95.91701	643.91980	566.57977	-107.38260	677.35236	536.58716	-129.19893	695.40668	546.75049	-49.02771	626.54694	573.85962	-79.01506	648.32440	585.42804	-53.74081	680.81824	601.87970	-68.51277	703.91742	631.95221	-219.11133	551.66113	658.29193	-212.90295	599.12579	554.50897	-110.45193	600.79382	712.19647	
4523	18.842	-22.41340	623.53625	531.61414	-72.54324	623.99921	564.77515	-114.50610	605.22565	594.37378	-62.62108	620.50610	534.45404	-85.69833	640.48151	556.25098	-99.53506	673.28217	526.40863	-117.94418	695.06268	536.85944	-38.80515	621.85492	566.62665	-66.71133	644.76331	578.13666	-42.46901	677.12128	596.41010	-56.46693	704.89886	623.75385	-210.51793	549.43488	651.22778	-201.89450	594.04541	545.52271	-99.13598	593.68726	704.27551	
4524	18.846	-12.77181	619.43365	523.69604	-63.55703	619.24475	557.14490	-104.48374	599.67078	586.74597	-53.37682	616.11945	526.40771	-76.72153	636.45447	545.34064	-92.15366	666.98358	514.21759	-108.44329	691.15057	522.63422	-28.68369	617.22888	559.37952	-53.99965	640.74548	572.34210	-29.31820	671.13538	592.49152	-39.96541	701.05176	619.16113	-201.50301	546.45081	643.93182	-190.31859	588.73114	535.81390	-86.74568	586.05475	696.29456	
4525	18.850	-3.20948	615.33728	515.79462	-54.69518	614.51447	549.49139	-94.80517	594.67145	579.59814	-44.17904	611.79895	518.34900	-68.77711	631.72083	533.76678	-85.04279	658.34149	500.23602	-100.73998	683.58887	504.53436	-18.60603	612.64453	551.96655	-41.10811	635.91791	567.82654	-14.42731	662.71124	589.68353	-19.87966	692.22284	617.52350	-192.01094	542.47675	636.30762	-178.62010	583.51569	525.99347	-73.87848	578.76953	688.22284	
4526	18.854	6.34105	611.34766	507.87091	-45.85431	609.79877	541.73730	-85.36961	590.20447	572.76953	-34.91803	607.54694	510.24628	-61.43300	626.14386	521.47858	-77.58952	647.41302	485.02985	-93.79082	672.30969	483.75543	-8.44569	608.03662	544.33398	-27.95425	630.02008	563.94360	1.87018	651.91064	587.00110	2.73211	678.60034	616.92114	-182.01649	537.42810	628.41058	-167.41718	578.17932	516.81665	-61.23548	572.12457	680.09235	
4527	18.858	15.92719	607.55469	499.89987	-36.90827	605.21698	533.86682	-76.07632	586.24677	566.09912	-25.51569	603.38568	502.08612	-54.10305	619.62097	508.63870	-68.88504	634.46375	469.38934	-85.85680	657.46039	461.90201	1.86915	603.39124	536.50208	-14.26865	623.00934	559.90253	19.08549	638.98621	583.15729	26.75960	660.72247	614.94464	-171.48206	531.37885	620.39191	-157.17291	572.26599	508.77704	-49.38892	565.87036	671.97540	
4528	18.862	25.56754	604.00085	491.86856	-27.73946	600.96368	525.91815	-66.82452	582.77533	559.42596	-15.93816	599.36835	493.91074	-46.15479	612.23267	495.60236	-58.06668	619.98633	454.19733	-75.26834	639.58960	440.60233	12.29955	598.80646	528.50696	0.08652	615.09546	555.06909	36.61734	624.37549	576.97754	50.97913	639.49591	609.46619	-160.35292	524.56165	612.42041	-147.95811	565.55688	501.92206	-38.68574	559.60596	663.93286	
4529	18.867	35.26774	600.66583	483.76578	-18.25424	597.17993	517.95105	-57.51345	579.76697	552.58929	-6.18341	595.56592	485.79596	-37.14334	604.24554	482.81311	-44.63767	604.69958	440.31223	-60.99400	619.62244	421.26645	22.74571	594.44104	520.39026	14.91913	606.59650	549.05920	53.75680	608.72418	567.72906	74.06489	616.18378	599.17310	-148.58743	517.33508	604.60962	-139.46638	558.31671	495.99451	-29.21717	553.22260	655.98724	
4530	18.871	45.02939	597.48730	475.58865	-8.42634	593.87903	510.01218	-48.04411	577.19916	545.43097	3.74057	592.04034	477.76926	-26.95897	596.03467	470.68091	-28.63556	589.51154	428.45834	-42.80727	598.72333	405.05637	33.13648	590.40216	512.22443	29.76154	597.79791	541.69263	69.73513	592.90851	555.29614	94.72762	592.31567	583.76074	-136.22787	510.14948	597.01160	-131.23619	551.15668	490.65707	-20.77007	547.04266	648.12103	
4531	18.875	54.85432	594.39709	467.35587	1.67509	590.96954	502.11166	-38.34978	575.05023	537.85248	13.82327	588.80505	469.76797	-15.82903	588.00031	459.51212	-10.65953	575.42389	419.07745	-21.26579	578.21930	392.89175	43.47396	586.71063	504.08636	44.02365	589.06488	533.02960	83.87679	577.98279	540.19202	111.92580	569.54059	563.86450	-123.46026	503.47275	589.64795	-122.85647	544.62543	485.55862	-12.81332	541.53589	640.26367	
4532	18.879	64.76669	591.32025	459.08328	11.94739	588.32288	494.22473	-28.36404	573.07379	529.92639	24.05929	585.81561	461.67847	-4.21333	580.48785	449.47174	8.26247	563.42969	412.14813	2.37945	559.56354	385.27402	53.82718	583.35559	495.97736	57.20509	580.91791	523.47815	95.83987	565.04932	523.42871	125.14704	549.47546	540.86615	-110.59915	497.65051	582.48468	-114.04082	538.85797	480.29288	-4.63621	536.93524	632.32190	
4533	18.883	74.81285	588.17242	450.75409	22.33985	585.81848	486.30429	-17.97026	570.68268	521.79852	34.46183	583.00757	453.40884	7.36776	573.77374	440.54218	26.92149	554.38037	407.09485	26.43248	544.26569	381.93182	64.28584	580.31519	487.80988	69.10808	573.84100	513.71552	105.79689	555.07074	506.32343	134.65680	533.52979	516.63666	-97.97349	492.78168	575.38257	-104.63979	533.60730	474.47165	4.39677	533.10498	624.23120	
4534	18.888	85.04088	584.89594	442.33765	32.88633	583.33508	478.28375	-7.41973	568.02136	513.55566	45.05234	580.31592	444.93622	18.47696	568.07129	432.52585	44.19508	548.78778	402.90634	49.15555	533.63507	381.58490	74.89970	577.51013	479.47470	79.90549	568.10779	504.37524	114.41229	548.64526	490.26062	141.52153	522.63507	493.26181	-85.77226	488.70331	568.10120	-94.62850	528.53436	467.89920	14.64114	529.64673	615.93854	
